<svg xmlns="http://www.w3.org/2000/svg" xmlns:xlink="http://www.w3.org/1999/xlink" width="85" height="25" viewBox="0 0 85 25">
  <defs>
    <path id="snippet-a" d="M1.64648438,10.2597656 L5.66601562,0.720703125 L4.69335938,0.720703125 L0.673828125,10.2597656 L1.64648438,10.2597656 Z M8.5546875,11.4023438 L8.5546875,8.94140625 C8.74609375,8.98828125 8.93457031,9.02148438 9.12011719,9.04101562 C9.30566406,9.06054688 9.4921875,9.0703125 9.6796875,9.0703125 C10.0898438,9.0703125 10.4707031,9.00585938 10.8222656,8.87695312 C11.1738281,8.74804688 11.4785156,8.5546875 11.7363281,8.296875 C11.9941406,8.0390625 12.1962891,7.71484375 12.3427734,7.32421875 C12.4892578,6.93359375 12.5625,6.4765625 12.5625,5.953125 C12.5625,5.5078125 12.5195312,5.10449219 12.4335938,4.74316406 C12.3476562,4.38183594 12.21875,4.07324219 12.046875,3.81738281 C11.875,3.56152344 11.6621094,3.36328125 11.4082031,3.22265625 C11.1542969,3.08203125 10.859375,3.01171875 10.5234375,3.01171875 C10.1367188,3.01171875 9.77734375,3.09277344 9.4453125,3.25488281 C9.11328125,3.41699219 8.80078125,3.69921875 8.5078125,4.1015625 L8.5078125,4.1015625 L8.44335938,3.1171875 L7.53515625,3.1171875 L7.53515625,11.4023438 L8.5546875,11.4023438 Z M9.75585938,8.24414062 C9.55664062,8.24414062 9.35351562,8.22167969 9.14648438,8.17675781 C8.93945312,8.13183594 8.7421875,8.0703125 8.5546875,7.9921875 L8.5546875,7.9921875 L8.5546875,5.13867188 C8.734375,4.90429688 8.90332031,4.70800781 9.06152344,4.54980469 C9.21972656,4.39160156 9.37011719,4.26464844 9.51269531,4.16894531 C9.65527344,4.07324219 9.79296875,4.00488281 9.92578125,3.96386719 C10.0585938,3.92285156 10.1894531,3.90234375 10.3183594,3.90234375 C10.5292969,3.90234375 10.7109375,3.95410156 10.8632812,4.05761719 C11.015625,4.16113281 11.140625,4.3046875 11.2382812,4.48828125 C11.3359375,4.671875 11.4072266,4.89257812 11.4521484,5.15039062 C11.4970703,5.40820312 11.5195312,5.69140625 11.5195312,6 C11.5195312,6.75 11.3632812,7.31152344 11.0507812,7.68457031 C10.7382812,8.05761719 10.3066406,8.24414062 9.75585938,8.24414062 Z M15.4042969,9 L15.4042969,5.22070312 C15.5917969,4.98242188 15.7675781,4.77929688 15.9316406,4.61132812 C16.0957031,4.44335938 16.2509766,4.30566406 16.3974609,4.19824219 C16.5439453,4.09082031 16.6865234,4.01269531 16.8251953,3.96386719 C16.9638672,3.91503906 17.1015625,3.890625 17.2382812,3.890625 C17.5507812,3.890625 17.7880859,4.00683594 17.9501953,4.23925781 C18.1123047,4.47167969 18.1875,4.84570312 18.1757812,5.36132812 L18.1757812,5.36132812 L19.2070312,5.36132812 C19.2304688,4.58398438 19.0849609,3.99804688 18.7705078,3.60351562 C18.4560547,3.20898438 17.9941406,3.01171875 17.3847656,3.01171875 C17.0410156,3.01171875 16.7001953,3.10546875 16.3623047,3.29296875 C16.0244141,3.48046875 15.6816406,3.78320312 15.3339844,4.20117188 L15.3339844,4.20117188 L15.3046875,3.1171875 L14.3730469,3.1171875 L14.3730469,9 L15.4042969,9 Z M23.0332031,9.10546875 C23.4746094,9.10546875 23.8691406,9.03027344 24.2167969,8.87988281 C24.5644531,8.72949219 24.859375,8.51855469 25.1015625,8.24707031 C25.34375,7.97558594 25.5292969,7.64941406 25.6582031,7.26855469 C25.7871094,6.88769531 25.8515625,6.46875 25.8515625,6.01171875 C25.8515625,5.52734375 25.7900391,5.09765625 25.6669922,4.72265625 C25.5439453,4.34765625 25.3662109,4.03417969 25.1337891,3.78222656 C24.9013672,3.53027344 24.6181641,3.33886719 24.2841797,3.20800781 C23.9501953,3.07714844 23.5722656,3.01171875 23.1503906,3.01171875 C22.7089844,3.01171875 22.3144531,3.08691406 21.9667969,3.23730469 C21.6191406,3.38769531 21.3242188,3.59863281 21.0820312,3.87011719 C20.8398438,4.14160156 20.6542969,4.46582031 20.5253906,4.84277344 C20.3964844,5.21972656 20.3320312,5.63671875 20.3320312,6.09375 C20.3320312,6.58203125 20.3935547,7.01367188 20.5166016,7.38867188 C20.6396484,7.76367188 20.8173828,8.078125 21.0498047,8.33203125 C21.2822266,8.5859375 21.5654297,8.77832031 21.8994141,8.90917969 C22.2333984,9.04003906 22.6113281,9.10546875 23.0332031,9.10546875 Z M23.0917969,8.24414062 C22.8261719,8.24414062 22.5878906,8.19824219 22.3769531,8.10644531 C22.1660156,8.01464844 21.9863281,7.87792969 21.8378906,7.69628906 C21.6894531,7.51464844 21.5751953,7.28710938 21.4951172,7.01367188 C21.4150391,6.74023438 21.375,6.421875 21.375,6.05859375 C21.375,5.76953125 21.4072266,5.49316406 21.4716797,5.22949219 C21.5361328,4.96582031 21.6376953,4.734375 21.7763672,4.53515625 C21.9150391,4.3359375 22.0927734,4.17675781 22.3095703,4.05761719 C22.5263672,3.93847656 22.7871094,3.87890625 23.0917969,3.87890625 C23.3535156,3.87890625 23.5908203,3.92480469 23.8037109,4.01660156 C24.0166016,4.10839844 24.1972656,4.24511719 24.3457031,4.42675781 C24.4941406,4.60839844 24.6083984,4.83496094 24.6884766,5.10644531 C24.7685547,5.37792969 24.8085938,5.6953125 24.8085938,6.05859375 C24.8085938,6.3515625 24.7763672,6.62988281 24.7119141,6.89355469 C24.6474609,7.15722656 24.5458984,7.38867188 24.4072266,7.58789062 C24.2685547,7.78710938 24.0908203,7.94628906 23.8740234,8.06542969 C23.6572266,8.18457031 23.3964844,8.24414062 23.0917969,8.24414062 Z M30.6035156,9.08203125 C30.8574219,9.08203125 31.1074219,9.06933594 31.3535156,9.04394531 C31.5996094,9.01855469 31.8378906,8.9765625 32.0683594,8.91796875 L32.0683594,8.91796875 L32.0683594,8.0390625 C31.8261719,8.1015625 31.59375,8.14746094 31.3710938,8.17675781 C31.1484375,8.20605469 30.9433594,8.22070312 30.7558594,8.22070312 C30.3183594,8.22070312 29.9873047,8.11621094 29.7626953,7.90722656 C29.5380859,7.69824219 29.4257812,7.3828125 29.4257812,6.9609375 L29.4257812,6.9609375 L29.4257812,3.97265625 L32.0683594,3.97265625 L32.0683594,3.1171875 L29.4257812,3.1171875 L29.4257812,1.23632812 L28.40625,1.5 L28.40625,3.1171875 L26.7597656,3.1171875 L26.7597656,3.97265625 L28.40625,3.97265625 L28.40625,7.04296875 C28.40625,7.734375 28.5878906,8.24707031 28.9511719,8.58105469 C29.3144531,8.91503906 29.8652344,9.08203125 30.6035156,9.08203125 Z M36.2285156,9.10546875 C36.6699219,9.10546875 37.0644531,9.03027344 37.4121094,8.87988281 C37.7597656,8.72949219 38.0546875,8.51855469 38.296875,8.24707031 C38.5390625,7.97558594 38.7246094,7.64941406 38.8535156,7.26855469 C38.9824219,6.88769531 39.046875,6.46875 39.046875,6.01171875 C39.046875,5.52734375 38.9853516,5.09765625 38.8623047,4.72265625 C38.7392578,4.34765625 38.5615234,4.03417969 38.3291016,3.78222656 C38.0966797,3.53027344 37.8134766,3.33886719 37.4794922,3.20800781 C37.1455078,3.07714844 36.7675781,3.01171875 36.3457031,3.01171875 C35.9042969,3.01171875 35.5097656,3.08691406 35.1621094,3.23730469 C34.8144531,3.38769531 34.5195312,3.59863281 34.2773438,3.87011719 C34.0351562,4.14160156 33.8496094,4.46582031 33.7207031,4.84277344 C33.5917969,5.21972656 33.5273438,5.63671875 33.5273438,6.09375 C33.5273438,6.58203125 33.5888672,7.01367188 33.7119141,7.38867188 C33.8349609,7.76367188 34.0126953,8.078125 34.2451172,8.33203125 C34.4775391,8.5859375 34.7607422,8.77832031 35.0947266,8.90917969 C35.4287109,9.04003906 35.8066406,9.10546875 36.2285156,9.10546875 Z M36.2871094,8.24414062 C36.0214844,8.24414062 35.7832031,8.19824219 35.5722656,8.10644531 C35.3613281,8.01464844 35.1816406,7.87792969 35.0332031,7.69628906 C34.8847656,7.51464844 34.7705078,7.28710938 34.6904297,7.01367188 C34.6103516,6.74023438 34.5703125,6.421875 34.5703125,6.05859375 C34.5703125,5.76953125 34.6025391,5.49316406 34.6669922,5.22949219 C34.7314453,4.96582031 34.8330078,4.734375 34.9716797,4.53515625 C35.1103516,4.3359375 35.2880859,4.17675781 35.5048828,4.05761719 C35.7216797,3.93847656 35.9824219,3.87890625 36.2871094,3.87890625 C36.5488281,3.87890625 36.7861328,3.92480469 36.9990234,4.01660156 C37.2119141,4.10839844 37.3925781,4.24511719 37.5410156,4.42675781 C37.6894531,4.60839844 37.8037109,4.83496094 37.8837891,5.10644531 C37.9638672,5.37792969 38.0039062,5.6953125 38.0039062,6.05859375 C38.0039062,6.3515625 37.9716797,6.62988281 37.9072266,6.89355469 C37.8427734,7.15722656 37.7412109,7.38867188 37.6025391,7.58789062 C37.4638672,7.78710938 37.2861328,7.94628906 37.0693359,8.06542969 C36.8525391,8.18457031 36.5917969,8.24414062 36.2871094,8.24414062 Z M43.7988281,9.08203125 C44.0527344,9.08203125 44.3027344,9.06933594 44.5488281,9.04394531 C44.7949219,9.01855469 45.0332031,8.9765625 45.2636719,8.91796875 L45.2636719,8.91796875 L45.2636719,8.0390625 C45.0214844,8.1015625 44.7890625,8.14746094 44.5664062,8.17675781 C44.34375,8.20605469 44.1386719,8.22070312 43.9511719,8.22070312 C43.5136719,8.22070312 43.1826172,8.11621094 42.9580078,7.90722656 C42.7333984,7.69824219 42.6210938,7.3828125 42.6210938,6.9609375 L42.6210938,6.9609375 L42.6210938,3.97265625 L45.2636719,3.97265625 L45.2636719,3.1171875 L42.6210938,3.1171875 L42.6210938,1.23632812 L41.6015625,1.5 L41.6015625,3.1171875 L39.9550781,3.1171875 L39.9550781,3.97265625 L41.6015625,3.97265625 L41.6015625,7.04296875 C41.6015625,7.734375 41.7832031,8.24707031 42.1464844,8.58105469 C42.5097656,8.91503906 43.0605469,9.08203125 43.7988281,9.08203125 Z M47.0742188,11.4375 C47.4609375,11.4375 47.8105469,11.3789062 48.1230469,11.2617188 C48.4355469,11.1445312 48.7226562,10.9619141 48.984375,10.7138672 C49.2460938,10.4658203 49.4873047,10.1484375 49.7080078,9.76171875 C49.9287109,9.375 50.1425781,8.9140625 50.3496094,8.37890625 L50.3496094,8.37890625 L52.3535156,3.1171875 L51.234375,3.1171875 L49.8574219,6.984375 L49.5175781,7.921875 L49.21875,7.0078125 L47.7304688,3.1171875 L46.5703125,3.1171875 L48.9199219,9 C48.7949219,9.27734375 48.6660156,9.51367188 48.5332031,9.70898438 C48.4003906,9.90429688 48.2617188,10.0634766 48.1171875,10.1865234 C47.9726562,10.3095703 47.8193359,10.3984375 47.6572266,10.453125 C47.4951172,10.5078125 47.3203125,10.5351562 47.1328125,10.5351562 C47.0195312,10.5351562 46.9121094,10.5302734 46.8105469,10.5205078 C46.7089844,10.5107422 46.6152344,10.5 46.5292969,10.4882812 L46.5292969,10.4882812 L46.5292969,11.4140625 C46.6269531,11.421875 46.7167969,11.4277344 46.7988281,11.4316406 C46.8808594,11.4355469 46.9726562,11.4375 47.0742188,11.4375 Z M54.7382812,11.4023438 L54.7382812,8.94140625 C54.9296875,8.98828125 55.1181641,9.02148438 55.3037109,9.04101562 C55.4892578,9.06054688 55.6757812,9.0703125 55.8632812,9.0703125 C56.2734375,9.0703125 56.6542969,9.00585938 57.0058594,8.87695312 C57.3574219,8.74804688 57.6621094,8.5546875 57.9199219,8.296875 C58.1777344,8.0390625 58.3798828,7.71484375 58.5263672,7.32421875 C58.6728516,6.93359375 58.7460938,6.4765625 58.7460938,5.953125 C58.7460938,5.5078125 58.703125,5.10449219 58.6171875,4.74316406 C58.53125,4.38183594 58.4023438,4.07324219 58.2304688,3.81738281 C58.0585938,3.56152344 57.8457031,3.36328125 57.5917969,3.22265625 C57.3378906,3.08203125 57.0429688,3.01171875 56.7070312,3.01171875 C56.3203125,3.01171875 55.9609375,3.09277344 55.6289062,3.25488281 C55.296875,3.41699219 54.984375,3.69921875 54.6914062,4.1015625 L54.6914062,4.1015625 L54.6269531,3.1171875 L53.71875,3.1171875 L53.71875,11.4023438 L54.7382812,11.4023438 Z M55.9394531,8.24414062 C55.7402344,8.24414062 55.5371094,8.22167969 55.3300781,8.17675781 C55.1230469,8.13183594 54.9257812,8.0703125 54.7382812,7.9921875 L54.7382812,7.9921875 L54.7382812,5.13867188 C54.9179688,4.90429688 55.0869141,4.70800781 55.2451172,4.54980469 C55.4033203,4.39160156 55.5537109,4.26464844 55.6962891,4.16894531 C55.8388672,4.07324219 55.9765625,4.00488281 56.109375,3.96386719 C56.2421875,3.92285156 56.3730469,3.90234375 56.5019531,3.90234375 C56.7128906,3.90234375 56.8945312,3.95410156 57.046875,4.05761719 C57.1992188,4.16113281 57.3242188,4.3046875 57.421875,4.48828125 C57.5195312,4.671875 57.5908203,4.89257812 57.6357422,5.15039062 C57.6806641,5.40820312 57.703125,5.69140625 57.703125,6 C57.703125,6.75 57.546875,7.31152344 57.234375,7.68457031 C56.921875,8.05761719 56.4902344,8.24414062 55.9394531,8.24414062 Z M62.9414062,9.10546875 C63.3164062,9.10546875 63.6787109,9.08105469 64.0283203,9.03222656 C64.3779297,8.98339844 64.6914062,8.91992188 64.96875,8.84179688 L64.96875,8.84179688 L64.96875,8.00390625 C64.84375,8.0390625 64.7080078,8.07128906 64.5615234,8.10058594 C64.4150391,8.12988281 64.2617188,8.15625 64.1015625,8.1796875 C63.9414062,8.203125 63.7753906,8.22167969 63.6035156,8.23535156 C63.4316406,8.24902344 63.2597656,8.25585938 63.0878906,8.25585938 C62.4550781,8.25585938 61.9707031,8.09472656 61.6347656,7.77246094 C61.2988281,7.45019531 61.1308594,6.98828125 61.1308594,6.38671875 L61.1308594,6.38671875 L65.2617188,6.38671875 C65.2695312,6.30078125 65.2753906,6.20898438 65.2792969,6.11132812 C65.2832031,6.01367188 65.2851562,5.89257812 65.2851562,5.74804688 C65.2851562,5.33007812 65.2294922,4.95214844 65.1181641,4.61425781 C65.0068359,4.27636719 64.8427734,3.98925781 64.6259766,3.75292969 C64.4091797,3.51660156 64.1425781,3.33398438 63.8261719,3.20507812 C63.5097656,3.07617188 63.1464844,3.01171875 62.7363281,3.01171875 C62.3144531,3.01171875 61.9375,3.09375 61.6054688,3.2578125 C61.2734375,3.421875 60.9931641,3.64355469 60.7646484,3.92285156 C60.5361328,4.20214844 60.3623047,4.52636719 60.2431641,4.89550781 C60.1240234,5.26464844 60.0644531,5.65625 60.0644531,6.0703125 C60.0644531,6.546875 60.1201172,6.97363281 60.2314453,7.35058594 C60.3427734,7.72753906 60.5146484,8.04589844 60.7470703,8.30566406 C60.9794922,8.56542969 61.2773438,8.76367188 61.640625,8.90039062 C62.0039062,9.03710938 62.4375,9.10546875 62.9414062,9.10546875 Z M64.2246094,5.6015625 L61.1308594,5.6015625 C61.1503906,5.33984375 61.2011719,5.09960938 61.2832031,4.88085938 C61.3652344,4.66210938 61.4726562,4.47460938 61.6054688,4.31835938 C61.7382812,4.16210938 61.8964844,4.04101562 62.0800781,3.95507812 C62.2636719,3.86914062 62.4667969,3.82617188 62.6894531,3.82617188 C62.9472656,3.82617188 63.1738281,3.87011719 63.3691406,3.95800781 C63.5644531,4.04589844 63.7275391,4.16796875 63.8583984,4.32421875 C63.9892578,4.48046875 64.0859375,4.66699219 64.1484375,4.88378906 C64.2109375,5.10058594 64.2363281,5.33984375 64.2246094,5.6015625 L64.2246094,5.6015625 Z M69.1230469,9.10546875 C69.3066406,9.10546875 69.4941406,9.09179688 69.6855469,9.06445312 C69.8769531,9.03710938 70.0634766,8.99414062 70.2451172,8.93554688 C70.4267578,8.87695312 70.5976562,8.80273438 70.7578125,8.71289062 C70.9179688,8.62304688 71.0585938,8.51464844 71.1796875,8.38769531 C71.3007812,8.26074219 71.3964844,8.11523438 71.4667969,7.95117188 C71.5371094,7.78710938 71.5722656,7.6015625 71.5722656,7.39453125 C71.5722656,7.17578125 71.5400391,6.98046875 71.4755859,6.80859375 C71.4111328,6.63671875 71.3046875,6.48242188 71.15625,6.34570312 C71.0078125,6.20898438 70.8144531,6.08496094 70.5761719,5.97363281 C70.3378906,5.86230469 70.0449219,5.75585938 69.6972656,5.65429688 C69.3769531,5.56054688 69.1171875,5.47363281 68.9179688,5.39355469 C68.71875,5.31347656 68.5634766,5.23339844 68.4521484,5.15332031 C68.3408203,5.07324219 68.2646484,4.99023438 68.2236328,4.90429688 C68.1826172,4.81835938 68.1621094,4.72265625 68.1621094,4.6171875 C68.1621094,4.51171875 68.1855469,4.41308594 68.2324219,4.32128906 C68.2792969,4.22949219 68.3564453,4.14941406 68.4638672,4.08105469 C68.5712891,4.01269531 68.7119141,3.95898438 68.8857422,3.91992188 C69.0595703,3.88085938 69.2734375,3.86132812 69.5273438,3.86132812 C69.7382812,3.86132812 69.9873047,3.87988281 70.2744141,3.91699219 C70.5615234,3.95410156 70.8652344,4.01171875 71.1855469,4.08984375 L71.1855469,4.08984375 L71.1855469,3.18164062 C70.8808594,3.11914062 70.5878906,3.07519531 70.3066406,3.04980469 C70.0253906,3.02441406 69.7695312,3.01171875 69.5390625,3.01171875 C69.0703125,3.01171875 68.6796875,3.06738281 68.3671875,3.17871094 C68.0546875,3.29003906 67.8066406,3.4296875 67.6230469,3.59765625 C67.4394531,3.765625 67.3095703,3.94726562 67.2333984,4.14257812 C67.1572266,4.33789062 67.1191406,4.51757812 67.1191406,4.68164062 C67.1191406,4.93164062 67.1660156,5.1484375 67.2597656,5.33203125 C67.3535156,5.515625 67.4824219,5.67578125 67.6464844,5.8125 C67.8105469,5.94921875 68.0048828,6.06738281 68.2294922,6.16699219 C68.4541016,6.26660156 68.6992188,6.35546875 68.9648438,6.43359375 C69.3203125,6.5390625 69.6005859,6.6328125 69.8056641,6.71484375 C70.0107422,6.796875 70.1621094,6.87597656 70.2597656,6.95214844 C70.3574219,7.02832031 70.4248047,7.10839844 70.4619141,7.19238281 C70.4990234,7.27636719 70.5175781,7.37109375 70.5175781,7.4765625 C70.5175781,7.72265625 70.4003906,7.91210938 70.1660156,8.04492188 C69.9316406,8.17773438 69.5703125,8.24414062 69.0820312,8.24414062 C68.7460938,8.24414062 68.4082031,8.21875 68.0683594,8.16796875 C67.7285156,8.1171875 67.3867188,8.04296875 67.0429688,7.9453125 L67.0429688,7.9453125 L67.0429688,8.8828125 C67.3632812,8.9609375 67.6904297,9.01757812 68.0244141,9.05273438 C68.3583984,9.08789062 68.7246094,9.10546875 69.1230469,9.10546875 Z"/>
  </defs>
  <g fill="none" transform="translate(1 1)">
    <rect width="83" height="23" fill="#FFF" stroke="#E9E9E9" rx="4"/>
    <g transform="translate(5 6)">
      <use fill="#000" xlink:href="#snippet-a"/>
      <use fill="#39485A" xlink:href="#snippet-a"/>
    </g>
  </g>
</svg>
